# xmcd CD database file
#
# Track frame offsets:
#	150
#	46890
#	77247
#	116761
#	135768
#	170473
#	182578
#
# Disc length: 2757 seconds
#
# Revision: 0
# Processed by: cddbd v1.5.1PL0 Copyright (c) Steve Scherf et al.
# Submitted via: CDex 1.51
#
DISCID=500ac307
DTITLE=George Winston - Autumn
DYEAR=1980
DGENRE=New Age
TTITLE0=Colors/Dance
TTITLE1=Woods
TTITLE2=Longing/Love
TTITLE3=Road
TTITLE4=Moon
TTITLE5=Sea
TTITLE6=Stars
EXTD=YEAR: 1980
EXTT0=
EXTT1=
EXTT2=
EXTT3=
EXTT4=
EXTT5=
EXTT6=
PLAYORDER=
